<?xml version="1.0" encoding="UTF-8"?>
<!DOCTYPE svg PUBLIC "-//W3C//DTD SVG 1.1//EN" "http://www.w3.org/Graphics/SVG/1.1/DTD/svg11.dtd">
<svg xmlns="http://www.w3.org/2000/svg" version="1.1" width="192px" height="192px" style="shape-rendering:geometricPrecision; text-rendering:geometricPrecision; image-rendering:optimizeQuality; fill-rule:evenodd; clip-rule:evenodd" xmlns:xlink="http://www.w3.org/1999/xlink">
<g><path style="opacity:0.979" fill="#050506" d="M 191.5,52.5 C 191.5,91.1667 191.5,129.833 191.5,168.5C 189.675,170.987 187.342,172.82 184.5,174C 125.167,174.667 65.8333,174.667 6.5,174C 3.65826,172.82 1.32493,170.987 -0.5,168.5C -0.5,129.833 -0.5,91.1667 -0.5,52.5C 3.07874,47.4087 8.07874,45.4087 14.5,46.5C 13.5039,35.4875 18.5039,30.4875 29.5,31.5C 40.4961,30.4875 45.4961,35.4875 44.5,46.5C 46.924,46.8076 49.2573,46.4742 51.5,45.5C 56.2992,36.2068 61.2992,27.0401 66.5,18C 84.7676,16.3731 103.101,16.0398 121.5,17C 124.197,17.5518 126.197,19.0518 127.5,21.5C 131.5,29.5 135.5,37.5 139.5,45.5C 154.489,46.3328 169.489,46.8328 184.5,47C 187.342,48.1798 189.675,50.0131 191.5,52.5 Z"/></g>
<g><path style="opacity:1" fill="#c9ebfc" d="M 71.5,24.5 C 87.5035,24.3334 103.503,24.5001 119.5,25C 123.069,31.8605 126.735,38.6938 130.5,45.5C 107.167,46.8333 83.8333,46.8333 60.5,45.5C 64.3627,38.5589 68.0294,31.5589 71.5,24.5 Z"/></g>
<g><path style="opacity:1" fill="#0d0f10" d="M 82.5,31.5 C 91.1731,31.3336 99.8397,31.5002 108.5,32C 110.994,34.2436 110.994,36.5769 108.5,39C 99.8333,39.6667 91.1667,39.6667 82.5,39C 79.9142,36.506 79.9142,34.006 82.5,31.5 Z"/></g>
<g><path style="opacity:1" fill="#bfdfef" d="M 23.5,39.5 C 27.5138,39.3345 31.5138,39.5012 35.5,40C 37.229,41.7889 37.8957,43.9556 37.5,46.5C 32.1667,46.5 26.8333,46.5 21.5,46.5C 21.1658,43.812 21.8325,41.4786 23.5,39.5 Z"/></g>
<g><path style="opacity:1" fill="#c9ebfb" d="M 8.5,54.5 C 66.501,54.3333 124.501,54.5 182.5,55C 183,55.5 183.5,56 184,56.5C 184.5,63.1583 184.666,69.825 184.5,76.5C 166.164,76.6666 147.83,76.4999 129.5,76C 109.763,58.7381 88.763,57.0715 66.5,71C 64.8333,72.6667 63.1667,74.3333 61.5,76C 43.1697,76.4999 24.8364,76.6666 6.5,76.5C 6.33375,69.825 6.50042,63.1583 7,56.5C 7.71719,55.9558 8.21719,55.2891 8.5,54.5 Z"/></g>
<g><path style="opacity:1" fill="#131617" d="M 148.5,61.5 C 151.352,61.3524 153.019,62.6857 153.5,65.5C 151.167,70.8333 148.833,70.8333 146.5,65.5C 146.752,63.9271 147.418,62.5938 148.5,61.5 Z"/></g>
<g><path style="opacity:1" fill="#111314" d="M 163.5,61.5 C 167.182,61.3347 170.848,61.5014 174.5,62C 176.994,64.2436 176.994,66.5769 174.5,69C 170.833,69.6667 167.167,69.6667 163.5,69C 160.914,66.506 160.914,64.006 163.5,61.5 Z"/></g>
<g><path style="opacity:1" fill="#535158" d="M 86.5,69.5 C 104.483,67.43 118.983,73.43 130,87.5C 140.383,107.488 137.883,125.654 122.5,142C 101.745,156.053 82.2449,154.553 64,137.5C 52.5185,121.503 51.5185,104.837 61,87.5C 67.4583,78.5318 75.9583,72.5318 86.5,69.5 Z"/></g>
<g><path style="opacity:1" fill="#070707" d="M 89.5,76.5 C 110.218,75.4238 123.384,84.7572 129,104.5C 130.587,126.241 120.753,139.408 99.5,144C 78.8513,144.698 66.3513,134.865 62,114.5C 61.3217,94.682 70.4884,82.0153 89.5,76.5 Z"/></g>
<g><path style="opacity:1" fill="#280e13" d="M 7.5,84.5 C 23.0051,83.1735 38.6717,83.1735 54.5,84.5C 54.3764,85.1067 54.0431,85.44 53.5,85.5C 38.3424,84.5038 23.0091,84.1705 7.5,84.5 Z"/></g>
<g><path style="opacity:1" fill="#1f0c10" d="M 183.5,84.5 C 167.991,84.1705 152.658,84.5038 137.5,85.5C 136.957,85.44 136.624,85.1067 136.5,84.5C 152.328,83.1735 167.995,83.1735 183.5,84.5 Z"/></g>
<g><path style="opacity:1" fill="#ee5876" d="M 7.5,84.5 C 23.0091,84.1705 38.3424,84.5038 53.5,85.5C 44.2077,102.14 44.2077,118.806 53.5,135.5C 38.3424,136.496 23.0091,136.83 7.5,136.5C 6.16667,119.167 6.16667,101.833 7.5,84.5 Z"/></g>
<g><path style="opacity:1" fill="#fafafa" d="M 87.5,84.5 C 113.38,83.2046 124.214,95.2046 120,120.5C 109.697,137.534 95.8635,141.034 78.5,131C 67.5882,118.741 66.7549,105.908 76,92.5C 79.4636,89.1945 83.297,86.5279 87.5,84.5 Z"/></g>
<g><path style="opacity:1" fill="#ee5876" d="M 183.5,84.5 C 184.833,101.833 184.833,119.167 183.5,136.5C 167.991,136.83 152.658,136.496 137.5,135.5C 146.792,118.806 146.792,102.14 137.5,85.5C 152.658,84.5038 167.991,84.1705 183.5,84.5 Z"/></g>
<g><path style="opacity:1" fill="#141414" d="M 91.5,91.5 C 93.9892,91.2978 96.3225,91.7978 98.5,93C 99.5536,94.3876 99.7203,95.8876 99,97.5C 96.4039,99.0201 93.5706,99.8534 90.5,100C 88.6667,101.833 86.8333,103.667 85,105.5C 84.7586,108.289 84.092,110.956 83,113.5C 78.7786,115.303 76.6119,113.803 76.5,109C 78.1536,100.187 83.1536,94.3541 91.5,91.5 Z"/></g>
<g><path style="opacity:1" fill="#2d1016" d="M 53.5,135.5 C 54.0431,135.56 54.3764,135.893 54.5,136.5C 38.6717,137.827 23.0051,137.827 7.5,136.5C 23.0091,136.83 38.3424,136.496 53.5,135.5 Z"/></g>
<g><path style="opacity:1" fill="#2d1016" d="M 137.5,135.5 C 152.658,136.496 167.991,136.83 183.5,136.5C 167.995,137.827 152.328,137.827 136.5,136.5C 136.624,135.893 136.957,135.56 137.5,135.5 Z"/></g>
<g><path style="opacity:1" fill="#c9ebfc" d="M 6.5,144.5 C 24.8364,144.333 43.1697,144.5 61.5,145C 77.2954,159.778 95.2954,163.111 115.5,155C 120.702,152.472 125.369,149.139 129.5,145C 147.83,144.5 166.164,144.333 184.5,144.5C 184.666,151.175 184.5,157.842 184,164.5C 183.5,165 183,165.5 182.5,166C 124.5,166.667 66.5,166.667 8.5,166C 8,165.5 7.5,165 7,164.5C 6.50042,157.842 6.33375,151.175 6.5,144.5 Z"/></g>
</svg>
